<svg xmlns="http://www.w3.org/2000/svg" xmlns:xlink="http://www.w3.org/1999/xlink" width="500" zoomAndPan="magnify" viewBox="0 0 375 374.999991" height="500" preserveAspectRatio="xMidYMid meet" version="1.0"><defs><clipPath id="3bcae3c537"><path d="M 0 111.476562 L 375 111.476562 L 375 263.726562 L 0 263.726562 Z M 0 111.476562 " clip-rule="nonzero"/></clipPath></defs><rect x="-37.5" width="450" fill="#ffffff" y="-37.499999" height="449.999989" fill-opacity="1"/><rect x="-37.5" width="450" fill="#3b3964" y="-37.499999" height="449.999989" fill-opacity="1"/><g clip-path="url(#3bcae3c537)"><path fill="#3abfef" d="M 168.339844 262.054688 C 165.996094 260.964844 162.960938 257.867188 162.523438 256.121094 C 162.238281 254.992188 161.835938 254.886719 160.515625 255.59375 C 158.890625 256.460938 153.695312 256.183594 151.480469 255.109375 C 148.890625 253.859375 146.15625 250.722656 145.234375 247.949219 L 144.503906 245.75 L 142.878906 246.09375 C 141.984375 246.285156 140.296875 246.390625 139.132812 246.332031 C 130.019531 245.871094 125.207031 234.523438 131.378906 228.0625 L 132.804688 226.570312 L 130.582031 224.632812 C 129.359375 223.566406 124.914062 219.914062 120.703125 216.515625 L 113.042969 210.339844 L 109.8125 209.835938 C 106.714844 209.351562 77.59375 204.910156 27.683594 197.3125 C 14.847656 195.359375 3.390625 193.613281 2.222656 193.429688 L 0.0976562 193.101562 L 0.117188 161.128906 C 0.125 143.542969 0.183594 129.113281 0.242188 129.058594 C 0.324219 128.984375 70.203125 145.390625 121.984375 157.640625 L 129.386719 159.394531 L 135.984375 155.652344 C 152.417969 146.328125 151.199219 146.820312 171.574219 141.347656 C 192.070312 135.847656 193.492188 135.636719 197.355469 137.5625 C 201.171875 139.460938 204.4375 143.722656 205.945312 148.761719 C 206.496094 150.605469 206.558594 150.652344 208.425781 150.652344 C 213.285156 150.652344 225.152344 152.792969 233.664062 155.203125 C 238.082031 156.453125 238.695312 156.527344 240.554688 156.039062 C 242.339844 155.570312 371.988281 112.550781 374.078125 111.734375 C 374.808594 111.453125 374.867188 111.691406 374.746094 114.464844 L 374.613281 117.503906 L 358.386719 122.917969 C 349.464844 125.894531 318.960938 136.042969 290.601562 145.472656 L 239.039062 162.621094 L 234.972656 161.34375 C 224.644531 158.105469 212.628906 156.1875 198.371094 155.5 C 186.664062 154.9375 183.152344 155.257812 179.074219 157.265625 C 177.242188 158.167969 173.324219 161.269531 166.972656 166.835938 C 161.804688 171.367188 157.070312 175.671875 156.457031 176.40625 C 153.925781 179.414062 154.71875 183.671875 158.179688 185.648438 C 162.878906 188.332031 167.386719 186.304688 180.574219 175.582031 C 182.398438 174.097656 184.597656 172.632812 185.460938 172.324219 C 186.425781 171.980469 189.179688 171.777344 192.589844 171.796875 C 197.316406 171.820312 198.746094 172.007812 202.148438 173.042969 C 206.753906 174.441406 208.425781 175.714844 207.980469 177.488281 C 207.53125 179.277344 206.261719 179.710938 203.683594 178.953125 C 202.472656 178.597656 201.480469 178.371094 201.480469 178.449219 C 201.480469 178.523438 204.632812 180.839844 208.480469 183.59375 C 222.777344 193.816406 228.0625 197.988281 239.417969 207.992188 C 242.054688 210.316406 244.371094 212.273438 244.5625 212.34375 C 244.757812 212.414062 246.875 210.011719 249.269531 207.007812 C 251.660156 204.003906 253.75 201.394531 253.910156 201.210938 C 254.070312 201.027344 264.992188 197.667969 278.179688 193.746094 C 291.371094 189.828125 311.960938 183.710938 323.941406 180.148438 C 335.917969 176.589844 352 171.796875 359.675781 169.5 C 367.351562 167.203125 373.914062 165.320312 374.253906 165.320312 C 374.734375 165.320312 374.847656 165.949219 374.746094 168.085938 L 374.613281 170.851562 L 369.722656 172.328125 C 361.375 174.851562 314.4375 188.839844 300.824219 192.859375 C 278.570312 199.429688 258.515625 205.457031 258.0625 205.707031 C 257.769531 205.871094 255.558594 208.46875 253.152344 211.480469 L 248.773438 216.953125 L 249.65625 219.640625 C 250.425781 221.992188 250.472656 222.632812 250.015625 224.804688 C 249.035156 229.472656 245.105469 232.597656 240.234375 232.578125 C 236.730469 232.566406 234.910156 231.574219 226.816406 225.277344 C 223.027344 222.328125 218.328125 218.757812 216.371094 217.339844 C 212.488281 214.527344 203.382812 208.949219 201.257812 208.078125 L 199.925781 207.53125 L 201.066406 208.539062 C 201.691406 209.09375 207.828125 214.117188 214.699219 219.699219 C 227.046875 229.730469 229.089844 231.742188 229.9375 234.699219 C 231.5 240.144531 228.238281 245.808594 222.789062 247.113281 C 218.363281 248.175781 218.152344 248.070312 199.695312 235.664062 C 193.0625 231.199219 187.4375 227.550781 187.195312 227.550781 C 186.71875 227.550781 189.226562 229.703125 198.589844 237.316406 C 206.804688 243.996094 208.535156 245.652344 209.523438 247.773438 C 211.898438 252.875 208.953125 259.09375 203.402344 260.707031 C 199.550781 261.828125 196.769531 260.917969 191.011719 256.660156 L 187.878906 254.34375 L 183.683594 257.90625 C 181.378906 259.867188 178.6875 261.835938 177.707031 262.28125 C 175.113281 263.457031 171.148438 263.363281 168.339844 262.054688 Z M 176.625 256.007812 C 177.707031 255.28125 180.488281 252.910156 182.8125 250.738281 C 186.992188 246.828125 187.035156 246.765625 187.035156 244.6875 C 187.035156 242.878906 186.835938 242.410156 185.582031 241.292969 C 184.449219 240.28125 183.707031 239.996094 182.191406 239.996094 C 180.410156 239.996094 179.933594 240.273438 176.308594 243.4375 C 174.140625 245.328125 171.289062 247.917969 169.96875 249.1875 C 167.707031 251.375 167.589844 251.59375 167.84375 253.195312 C 168.480469 257.195312 172.804688 258.582031 176.625 256.007812 Z M 158.257812 250.25 C 159.6875 249.839844 173.683594 238.128906 175.917969 235.476562 C 178.25 232.703125 176.816406 227.925781 173.300781 226.769531 C 170.269531 225.769531 169.109375 226.4375 159.585938 234.6875 L 150.808594 242.292969 L 150.808594 244.640625 C 150.808594 247.335938 151.859375 249.054688 154.105469 250.03125 C 155.761719 250.753906 156.386719 250.789062 158.257812 250.25 Z M 144.886719 238.816406 C 147.402344 236.910156 156.339844 229.171875 159.347656 226.289062 C 160.496094 225.1875 161.566406 223.707031 161.722656 222.996094 C 162.757812 218.289062 158.179688 214.289062 153.863281 216.128906 C 152.214844 216.832031 135.582031 231.4375 134.828125 232.839844 C 133.667969 235.011719 134.742188 238.5625 136.921875 239.746094 C 137.59375 240.109375 139.175781 240.414062 140.441406 240.421875 C 142.414062 240.4375 143.042969 240.210938 144.886719 238.816406 Z M 144.886719 238.816406 " fill-opacity="1" fill-rule="nonzero"/></g></svg>