<?xml version="1.0" encoding="UTF-8" standalone="no"?>
<svg
   version="1.0"
   width="367.000000pt"
   height="311.000000pt"
   viewBox="0 0 367.000000 311.000000"
   preserveAspectRatio="xMidYMid meet"
   id="svg1"
   sodipodi:docname="Logo1-_3B3964.svg"
   inkscape:version="1.3 (0e150ed, 2023-07-21)"
   xmlns:inkscape="http://www.inkscape.org/namespaces/inkscape"
   xmlns:sodipodi="http://sodipodi.sourceforge.net/DTD/sodipodi-0.dtd"
   xmlns="http://www.w3.org/2000/svg"
   xmlns:svg="http://www.w3.org/2000/svg">
  <defs
     id="defs1" />
  <sodipodi:namedview
     id="namedview1"
     pagecolor="#505050"
     bordercolor="#eeeeee"
     borderopacity="1"
     inkscape:showpageshadow="0"
     inkscape:pageopacity="0"
     inkscape:pagecheckerboard="0"
     inkscape:deskcolor="#505050"
     inkscape:document-units="pt"
     inkscape:zoom="0.56913183"
     inkscape:cx="245.11017"
     inkscape:cy="207.33333"
     inkscape:window-width="1312"
     inkscape:window-height="449"
     inkscape:window-x="139"
     inkscape:window-y="263"
     inkscape:window-maximized="0"
     inkscape:current-layer="svg1" />
  <g
     transform="translate(0.000000,311.000000) scale(0.100000,-0.100000)"
     fill="#000000"
     stroke="none"
     id="g1"
     style="fill:#3b3964;fill-opacity:1">
    <path
       d="M407 2976 c-105 -43 -183 -123 -239 -243 -29 -60 -33 -80 -36 -173 -5 -126 11 -198 69 -315 108 -221 364 -408 712 -521 48 -15 87 -33 86 -39 0 -5 -118 -343 -263 -750 l-263 -740 311 -3 c198 -1 313 1 320 8 5 5 117 312 247 681 131 369 240 673 242 675 2 2 120 -13 263 -33 l259 -38 6 -215 c4 -118 10 -369 14 -558 l7 -342 -138 0 c-120 0 -143 -3 -171 -20 -86 -52 -78 -178 13 -216 47 -20 813 0 856 22 79 41 87 155 15 206 -30 22 -40 23 -178 20 l-146 -3 -6 178 c-15 416 -20 883 -9 883 29 0 272 -54 386 -85 133 -37 314 -104 403 -149 96 -48 131 -126 79 -175 -40 -37 -84 -37 -195 0 -94 31 -102 32 -154 20 -171 -38 -234 -235 -114 -359 61 -64 97 -75 222 -69 231 11 378 92 448 245 19 40 22 64 22 167 -1 133 -19 197 -86 312 -46 77 -167 198 -259 258 -142 92 -377 180 -656 243 l-119 28 -7 279 c-3 154 -8 362 -11 463 l-6 182 585 0 586 0 29 29 c41 41 41 101 0 142 l-29 29 -1519 0 -1518 0 -58 -24z m983 -185 c0 -11 -249 -714 -255 -720 -12 -11 -300 53 -475 106 -194 59 -279 134 -280 248 0 78 53 131 187 189 44 19 99 47 122 62 42 28 81 79 81 108 0 14 30 16 310 16 171 0 310 -4 310 -9z m707 -428 c5 -241 8 -439 7 -441 -1 -2 -28 1 -60 7 -33 6 -113 17 -178 26 -66 8 -121 17 -123 19 -2 2 60 183 137 402 77 219 143 405 145 412 2 6 17 12 33 12 l29 0 10 -437z"
       id="path1"
       style="fill:#3b3964;fill-opacity:1" />
  </g>
</svg>
