<?xml version="1.0" encoding="UTF-8" standalone="no"?>
<svg
   version="1.0"
   width="500.00003pt"
   height="500.00003pt"
   viewBox="0 0 500.00003 500.00003"
   preserveAspectRatio="xMidYMid"
   id="svg1"
   sodipodi:docname="Logo1-_5165A2.svg"
   inkscape:export-filename="Logo1-_1A6D8B.png"
   inkscape:export-xdpi="96"
   inkscape:export-ydpi="96"
   xmlns:inkscape="http://www.inkscape.org/namespaces/inkscape"
   xmlns:sodipodi="http://sodipodi.sourceforge.net/DTD/sodipodi-0.dtd"
   xmlns="http://www.w3.org/2000/svg"
   xmlns:svg="http://www.w3.org/2000/svg">
  <defs
     id="defs1" />
  <sodipodi:namedview
     id="namedview1"
     pagecolor="#505050"
     bordercolor="#eeeeee"
     borderopacity="1"
     inkscape:showpageshadow="0"
     inkscape:pageopacity="0"
     inkscape:pagecheckerboard="0"
     inkscape:deskcolor="#505050"
     inkscape:document-units="pt" />
  <g
     transform="matrix(0.1,0,0,-0.1,48.728814,500)"
     fill="#000000"
     stroke="none"
     id="g1"
     style="fill:#1a6d8b;fill-opacity:1">
    <path
       d="m 680,3910 c -119,-43 -230,-166 -271,-302 -18,-60 -21,-86 -16,-172 12,-214 121,-401 326,-557 79,-60 309,-174 443,-221 54,-18 98,-37 98,-42 0,-6 -117,-340 -260,-743 -143,-403 -260,-738 -260,-743 0,-15 617,-13 626,2 4,6 114,314 245,682 l 238,671 35,-1 c 20,-1 139,-16 264,-34 l 229,-33 6,-211 c 4,-116 10,-367 13,-558 l 7,-348 h -134 c -156,0 -193,-12 -222,-72 -33,-68 8,-157 78,-170 43,-9 778,12 817,22 94,26 112,172 26,216 -20,10 -67,14 -173,14 -131,0 -145,2 -146,18 -9,277 -25,1038 -23,1041 12,13 356,-66 522,-119 302,-98 422,-184 377,-270 -30,-58 -93,-63 -218,-19 -104,36 -151,33 -221,-12 -117,-74 -138,-214 -48,-320 49,-57 100,-79 187,-78 179,0 331,54 419,150 63,68 85,123 93,229 14,198 -86,400 -270,546 -151,120 -404,225 -712,296 -71,16 -132,31 -136,34 -3,2 -9,137 -13,301 -3,164 -9,371 -12,461 l -7,162 h 584 c 640,0 613,-3 639,59 17,42 5,95 -27,121 -26,20 -30,20 -1537,20 -1475,-1 -1512,-1 -1566,-20 z m 977,-187 c -3,-5 -62,-170 -132,-368 -70,-198 -128,-361 -129,-362 -3,-4 -240,47 -331,71 -253,67 -327,101 -389,179 -28,35 -31,46 -31,107 0,65 2,71 35,105 36,38 92,70 181,105 81,32 136,77 156,126 l 18,44 h 313 c 172,0 311,-3 309,-7 z m 697,-300 c 3,-170 9,-368 12,-442 l 7,-134 -44,7 c -24,4 -106,16 -182,26 -77,10 -141,21 -144,24 -4,3 205,606 278,804 6,16 17,22 37,22 h 29 z"
       id="path1"
       style="fill:#1a6d8b;fill-opacity:1" />
  </g>
</svg>
